<mxfile host="app.diagrams.net" modified="2023-12-25T06:48:13.116Z" agent="Mozilla/5.0 (Windows NT 10.0; Win64; x64) AppleWebKit/537.36 (KHTML, like Gecko) Chrome/120.0.0.0 Safari/537.36" etag="nf3isIWSmoW2EKsFA7iy" version="22.1.11" type="device">
  <diagram name="Страница — 1" id="GDQbm2vWqznNutLy4ZEY">
    <mxGraphModel dx="3531" dy="-1773" grid="1" gridSize="10" guides="1" tooltips="1" connect="1" arrows="1" fold="1" page="1" pageScale="1" pageWidth="827" pageHeight="1169" math="0" shadow="0">
      <root>
        <mxCell id="0" />
        <mxCell id="1" parent="0" />
        <mxCell id="Sw8R2TDD7QGTORjDKsAt-1" value="" style="group;rotation=90;fontFamily=Arial;fontStyle=2" parent="1" vertex="1" connectable="0">
          <mxGeometry x="-2581" y="2817" width="728.8990000000006" height="177.16799999999967" as="geometry" />
        </mxCell>
        <mxCell id="Sw8R2TDD7QGTORjDKsAt-2" value="" style="rounded=0;whiteSpace=wrap;html=1;fillColor=none;rotation=90;fontFamily=Arial;fontStyle=2" parent="Sw8R2TDD7QGTORjDKsAt-1" vertex="1">
          <mxGeometry width="728.35" height="177.165" as="geometry" />
        </mxCell>
        <mxCell id="Sw8R2TDD7QGTORjDKsAt-3" value="" style="rounded=0;whiteSpace=wrap;html=1;fillColor=none;rotation=90;fontFamily=Arial;fontStyle=2" parent="Sw8R2TDD7QGTORjDKsAt-1" vertex="1">
          <mxGeometry x="391" y="-271" width="27.558999999999997" height="19.685" as="geometry" />
        </mxCell>
        <mxCell id="Sw8R2TDD7QGTORjDKsAt-4" value="" style="rounded=0;whiteSpace=wrap;html=1;fillColor=none;rotation=90;fontFamily=Arial;fontStyle=2" parent="Sw8R2TDD7QGTORjDKsAt-1" vertex="1">
          <mxGeometry x="371" y="-271" width="27.558999999999997" height="19.685" as="geometry" />
        </mxCell>
        <mxCell id="Sw8R2TDD7QGTORjDKsAt-5" value="" style="rounded=0;whiteSpace=wrap;html=1;fillColor=none;rotation=90;fontFamily=Arial;fontStyle=2" parent="Sw8R2TDD7QGTORjDKsAt-1" vertex="1">
          <mxGeometry x="411" y="-271" width="27.558999999999997" height="19.685" as="geometry" />
        </mxCell>
        <mxCell id="Sw8R2TDD7QGTORjDKsAt-6" value="" style="rounded=0;whiteSpace=wrap;html=1;fillColor=none;rotation=90;fontFamily=Arial;fontStyle=2" parent="Sw8R2TDD7QGTORjDKsAt-1" vertex="1">
          <mxGeometry x="385" y="-238" width="39.37" height="19.685" as="geometry" />
        </mxCell>
        <mxCell id="Sw8R2TDD7QGTORjDKsAt-7" value="" style="rounded=0;whiteSpace=wrap;html=1;fillColor=none;rotation=90;fontFamily=Arial;fontStyle=2" parent="Sw8R2TDD7QGTORjDKsAt-1" vertex="1">
          <mxGeometry x="365" y="-238" width="39.37" height="19.685" as="geometry" />
        </mxCell>
        <mxCell id="Sw8R2TDD7QGTORjDKsAt-8" value="" style="rounded=0;whiteSpace=wrap;html=1;fillColor=none;rotation=90;fontFamily=Arial;fontStyle=2" parent="Sw8R2TDD7QGTORjDKsAt-1" vertex="1">
          <mxGeometry x="405" y="-238" width="39.37" height="19.685" as="geometry" />
        </mxCell>
        <mxCell id="Sw8R2TDD7QGTORjDKsAt-9" value="" style="rounded=0;whiteSpace=wrap;html=1;fillColor=none;rotation=90;fontFamily=Arial;fontStyle=2" parent="Sw8R2TDD7QGTORjDKsAt-1" vertex="1">
          <mxGeometry x="360" y="-173" width="90.551" height="19.685" as="geometry" />
        </mxCell>
        <mxCell id="Sw8R2TDD7QGTORjDKsAt-10" value="" style="rounded=0;whiteSpace=wrap;html=1;fillColor=none;rotation=90;fontFamily=Arial;fontStyle=2" parent="Sw8R2TDD7QGTORjDKsAt-1" vertex="1">
          <mxGeometry x="360" y="-172" width="90.551" height="19.685" as="geometry" />
        </mxCell>
        <mxCell id="Sw8R2TDD7QGTORjDKsAt-11" value="" style="rounded=0;whiteSpace=wrap;html=1;fillColor=none;rotation=90;fontFamily=Arial;fontStyle=2" parent="Sw8R2TDD7QGTORjDKsAt-1" vertex="1">
          <mxGeometry x="379" y="-173" width="90.551" height="19.685" as="geometry" />
        </mxCell>
        <mxCell id="Sw8R2TDD7QGTORjDKsAt-12" value="" style="rounded=0;whiteSpace=wrap;html=1;fillColor=none;rotation=90;fontFamily=Arial;fontStyle=2" parent="Sw8R2TDD7QGTORjDKsAt-1" vertex="1">
          <mxGeometry x="375" y="-98" width="59.055" height="19.685" as="geometry" />
        </mxCell>
        <mxCell id="Sw8R2TDD7QGTORjDKsAt-13" value="" style="rounded=0;whiteSpace=wrap;html=1;fillColor=none;rotation=90;fontFamily=Arial;fontStyle=2" parent="Sw8R2TDD7QGTORjDKsAt-1" vertex="1">
          <mxGeometry x="355" y="-98" width="59.055" height="19.685" as="geometry" />
        </mxCell>
        <mxCell id="Sw8R2TDD7QGTORjDKsAt-14" value="" style="rounded=0;whiteSpace=wrap;html=1;fillColor=none;rotation=90;fontFamily=Arial;fontStyle=2" parent="Sw8R2TDD7QGTORjDKsAt-1" vertex="1">
          <mxGeometry x="395" y="-98" width="59.055" height="19.685" as="geometry" />
        </mxCell>
        <mxCell id="Sw8R2TDD7QGTORjDKsAt-15" value="" style="rounded=0;whiteSpace=wrap;html=1;fillColor=none;rotation=90;fontFamily=Arial;fontStyle=2" parent="Sw8R2TDD7QGTORjDKsAt-1" vertex="1">
          <mxGeometry x="384" y="-49" width="39.37" height="19.685" as="geometry" />
        </mxCell>
        <mxCell id="Sw8R2TDD7QGTORjDKsAt-16" value="" style="rounded=0;whiteSpace=wrap;html=1;fillColor=none;rotation=90;fontFamily=Arial;fontStyle=2" parent="Sw8R2TDD7QGTORjDKsAt-1" vertex="1">
          <mxGeometry x="365" y="-49" width="39.37" height="19.685" as="geometry" />
        </mxCell>
        <mxCell id="Sw8R2TDD7QGTORjDKsAt-17" value="" style="rounded=0;whiteSpace=wrap;html=1;fillColor=none;rotation=90;fontFamily=Arial;fontStyle=2" parent="Sw8R2TDD7QGTORjDKsAt-1" vertex="1">
          <mxGeometry x="405" y="-49" width="39.37" height="19.685" as="geometry" />
        </mxCell>
        <mxCell id="Sw8R2TDD7QGTORjDKsAt-18" value="" style="rounded=0;whiteSpace=wrap;html=1;fillColor=none;rotation=90;fontFamily=Arial;fontStyle=2" parent="Sw8R2TDD7QGTORjDKsAt-1" vertex="1">
          <mxGeometry x="187" y="187" width="472.43" height="59.055" as="geometry" />
        </mxCell>
        <mxCell id="Sw8R2TDD7QGTORjDKsAt-19" value="Изм." style="text;html=1;strokeColor=none;fillColor=none;align=center;verticalAlign=middle;whiteSpace=wrap;rounded=0;fontFamily=Arial;fontSize=10;rotation=90;fontStyle=2" parent="Sw8R2TDD7QGTORjDKsAt-1" vertex="1">
          <mxGeometry x="371" y="-272" width="27.558999999999997" height="19.685" as="geometry" />
        </mxCell>
        <mxCell id="Sw8R2TDD7QGTORjDKsAt-20" value="Лист" style="text;html=1;strokeColor=none;fillColor=none;align=center;verticalAlign=middle;whiteSpace=wrap;rounded=0;fontFamily=Arial;fontSize=10;rotation=90;fontStyle=2" parent="Sw8R2TDD7QGTORjDKsAt-1" vertex="1">
          <mxGeometry x="366" y="-237" width="39.37" height="19.685" as="geometry" />
        </mxCell>
        <mxCell id="Sw8R2TDD7QGTORjDKsAt-21" value="№ докум." style="text;html=1;strokeColor=none;fillColor=none;align=center;verticalAlign=middle;whiteSpace=wrap;rounded=0;fontFamily=Arial;fontSize=10;rotation=90;fontStyle=2" parent="Sw8R2TDD7QGTORjDKsAt-1" vertex="1">
          <mxGeometry x="339" y="-172" width="90.551" height="19.68" as="geometry" />
        </mxCell>
        <mxCell id="Sw8R2TDD7QGTORjDKsAt-22" value="Подп" style="text;html=1;strokeColor=none;fillColor=none;align=center;verticalAlign=middle;whiteSpace=wrap;rounded=0;fontFamily=Arial;fontSize=10;rotation=90;fontStyle=2" parent="Sw8R2TDD7QGTORjDKsAt-1" vertex="1">
          <mxGeometry x="355" y="-99" width="59.055" height="19.68" as="geometry" />
        </mxCell>
        <mxCell id="Sw8R2TDD7QGTORjDKsAt-23" value="Дата" style="text;html=1;strokeColor=none;fillColor=none;align=center;verticalAlign=middle;whiteSpace=wrap;rounded=0;fontFamily=Arial;fontSize=10;rotation=90;fontStyle=2" parent="Sw8R2TDD7QGTORjDKsAt-1" vertex="1">
          <mxGeometry x="364" y="-49" width="39.37" height="19.685" as="geometry" />
        </mxCell>
        <mxCell id="Sw8R2TDD7QGTORjDKsAt-24" value="" style="rounded=0;whiteSpace=wrap;html=1;fillColor=none;rotation=90;fontFamily=Arial;fontStyle=2" parent="Sw8R2TDD7QGTORjDKsAt-1" vertex="1">
          <mxGeometry x="331" y="-251" width="66.929" height="19.68" as="geometry" />
        </mxCell>
        <mxCell id="Sw8R2TDD7QGTORjDKsAt-25" value="" style="rounded=0;whiteSpace=wrap;html=1;fillColor=none;rotation=90;fontFamily=Arial;fontStyle=2" parent="Sw8R2TDD7QGTORjDKsAt-1" vertex="1">
          <mxGeometry x="311" y="-251" width="66.929" height="19.68" as="geometry" />
        </mxCell>
        <mxCell id="Sw8R2TDD7QGTORjDKsAt-26" value="" style="rounded=0;whiteSpace=wrap;html=1;fillColor=none;rotation=90;fontFamily=Arial;fontStyle=2" parent="Sw8R2TDD7QGTORjDKsAt-1" vertex="1">
          <mxGeometry x="292" y="-251" width="66.929" height="19.68" as="geometry" />
        </mxCell>
        <mxCell id="Sw8R2TDD7QGTORjDKsAt-27" value="" style="rounded=0;whiteSpace=wrap;html=1;fillColor=none;rotation=90;fontFamily=Arial;fontStyle=2" parent="Sw8R2TDD7QGTORjDKsAt-1" vertex="1">
          <mxGeometry x="272" y="-251" width="66.929" height="19.68" as="geometry" />
        </mxCell>
        <mxCell id="Sw8R2TDD7QGTORjDKsAt-28" value="" style="rounded=0;whiteSpace=wrap;html=1;fillColor=none;rotation=90;fontFamily=Arial;fontStyle=2" parent="Sw8R2TDD7QGTORjDKsAt-1" vertex="1">
          <mxGeometry x="252" y="-251" width="66.929" height="19.68" as="geometry" />
        </mxCell>
        <mxCell id="Sw8R2TDD7QGTORjDKsAt-29" value="" style="rounded=0;whiteSpace=wrap;html=1;fillColor=none;rotation=90;fontFamily=Arial;fontStyle=2" parent="Sw8R2TDD7QGTORjDKsAt-1" vertex="1">
          <mxGeometry x="339" y="-173" width="90.551" height="19.68" as="geometry" />
        </mxCell>
        <mxCell id="Sw8R2TDD7QGTORjDKsAt-30" value="" style="rounded=0;whiteSpace=wrap;html=1;fillColor=none;rotation=90;fontFamily=Arial;fontStyle=2" parent="Sw8R2TDD7QGTORjDKsAt-1" vertex="1">
          <mxGeometry x="280" y="-173" width="90.551" height="19.68" as="geometry" />
        </mxCell>
        <mxCell id="Sw8R2TDD7QGTORjDKsAt-31" value="" style="rounded=0;whiteSpace=wrap;html=1;fillColor=none;rotation=90;fontFamily=Arial;fontStyle=2" parent="Sw8R2TDD7QGTORjDKsAt-1" vertex="1">
          <mxGeometry x="260" y="-173" width="90.551" height="19.68" as="geometry" />
        </mxCell>
        <mxCell id="Sw8R2TDD7QGTORjDKsAt-32" value="" style="rounded=0;whiteSpace=wrap;html=1;fillColor=none;rotation=90;fontFamily=Arial;fontStyle=2" parent="Sw8R2TDD7QGTORjDKsAt-1" vertex="1">
          <mxGeometry x="240" y="-173" width="90.551" height="19.68" as="geometry" />
        </mxCell>
        <mxCell id="Sw8R2TDD7QGTORjDKsAt-33" value="" style="rounded=0;whiteSpace=wrap;html=1;fillColor=none;rotation=90;fontFamily=Arial;fontStyle=2" parent="Sw8R2TDD7QGTORjDKsAt-1" vertex="1">
          <mxGeometry x="335" y="-98" width="59.055" height="19.68" as="geometry" />
        </mxCell>
        <mxCell id="Sw8R2TDD7QGTORjDKsAt-34" value="" style="rounded=0;whiteSpace=wrap;html=1;fillColor=none;rotation=90;fontFamily=Arial;fontStyle=2" parent="Sw8R2TDD7QGTORjDKsAt-1" vertex="1">
          <mxGeometry x="315" y="-98" width="59.055" height="19.68" as="geometry" />
        </mxCell>
        <mxCell id="Sw8R2TDD7QGTORjDKsAt-35" value="" style="rounded=0;whiteSpace=wrap;html=1;fillColor=none;rotation=90;fontFamily=Arial;fontStyle=2" parent="Sw8R2TDD7QGTORjDKsAt-1" vertex="1">
          <mxGeometry x="296" y="-98" width="59.055" height="19.68" as="geometry" />
        </mxCell>
        <mxCell id="Sw8R2TDD7QGTORjDKsAt-36" value="" style="rounded=0;whiteSpace=wrap;html=1;fillColor=none;rotation=90;fontFamily=Arial;fontStyle=2" parent="Sw8R2TDD7QGTORjDKsAt-1" vertex="1">
          <mxGeometry x="276" y="-98" width="59.055" height="19.68" as="geometry" />
        </mxCell>
        <mxCell id="Sw8R2TDD7QGTORjDKsAt-37" value="" style="rounded=0;whiteSpace=wrap;html=1;fillColor=none;rotation=90;fontFamily=Arial;fontStyle=2" parent="Sw8R2TDD7QGTORjDKsAt-1" vertex="1">
          <mxGeometry x="256" y="-98" width="59.055" height="19.68" as="geometry" />
        </mxCell>
        <mxCell id="Sw8R2TDD7QGTORjDKsAt-38" value="" style="rounded=0;whiteSpace=wrap;html=1;fillColor=none;rotation=90;fontFamily=Arial;fontStyle=2" parent="Sw8R2TDD7QGTORjDKsAt-1" vertex="1">
          <mxGeometry x="345" y="-49" width="39.37" height="19.68" as="geometry" />
        </mxCell>
        <mxCell id="Sw8R2TDD7QGTORjDKsAt-39" value="" style="rounded=0;whiteSpace=wrap;html=1;fillColor=none;rotation=90;fontFamily=Arial;fontStyle=2" parent="Sw8R2TDD7QGTORjDKsAt-1" vertex="1">
          <mxGeometry x="325" y="-49" width="39.37" height="19.68" as="geometry" />
        </mxCell>
        <mxCell id="Sw8R2TDD7QGTORjDKsAt-40" value="" style="rounded=0;whiteSpace=wrap;html=1;fillColor=none;rotation=90;fontFamily=Arial;fontStyle=2" parent="Sw8R2TDD7QGTORjDKsAt-1" vertex="1">
          <mxGeometry x="305" y="-49" width="39.37" height="19.68" as="geometry" />
        </mxCell>
        <mxCell id="Sw8R2TDD7QGTORjDKsAt-41" value="" style="rounded=0;whiteSpace=wrap;html=1;fillColor=none;rotation=90;fontFamily=Arial;fontStyle=2" parent="Sw8R2TDD7QGTORjDKsAt-1" vertex="1">
          <mxGeometry x="286" y="-49" width="39.37" height="19.68" as="geometry" />
        </mxCell>
        <mxCell id="Sw8R2TDD7QGTORjDKsAt-42" value="" style="rounded=0;whiteSpace=wrap;html=1;fillColor=none;rotation=90;fontFamily=Arial;fontStyle=2" parent="Sw8R2TDD7QGTORjDKsAt-1" vertex="1">
          <mxGeometry x="266" y="-49" width="39.37" height="19.68" as="geometry" />
        </mxCell>
        <mxCell id="Sw8R2TDD7QGTORjDKsAt-43" value="" style="rounded=0;whiteSpace=wrap;html=1;fontFamily=Arial;fontSize=10;fillColor=none;rotation=90;fontStyle=2" parent="Sw8R2TDD7QGTORjDKsAt-1" vertex="1">
          <mxGeometry x="349" y="407" width="70.866" height="19.685" as="geometry" />
        </mxCell>
        <mxCell id="Sw8R2TDD7QGTORjDKsAt-44" value="2" style="rounded=0;whiteSpace=wrap;html=1;fontFamily=Arial;fontSize=10;fillColor=none;rotation=90;fontStyle=2" parent="Sw8R2TDD7QGTORjDKsAt-1" vertex="1">
          <mxGeometry x="320" y="398" width="70.866" height="39.37" as="geometry" />
        </mxCell>
        <mxCell id="Sw8R2TDD7QGTORjDKsAt-45" value="" style="rounded=0;whiteSpace=wrap;html=1;fontFamily=Arial;fontSize=10;fillColor=none;rotation=90;fontStyle=2" parent="Sw8R2TDD7QGTORjDKsAt-1" vertex="1">
          <mxGeometry x="351" y="339" width="66.929" height="19.685" as="geometry" />
        </mxCell>
        <mxCell id="Sw8R2TDD7QGTORjDKsAt-46" value="1" style="rounded=0;whiteSpace=wrap;html=1;fontFamily=Arial;fontSize=10;fillColor=none;rotation=90;fontStyle=2" parent="Sw8R2TDD7QGTORjDKsAt-1" vertex="1">
          <mxGeometry x="322" y="329" width="66.929" height="39.37" as="geometry" />
        </mxCell>
        <mxCell id="Sw8R2TDD7QGTORjDKsAt-47" value="" style="rounded=0;whiteSpace=wrap;html=1;fontFamily=Arial;fontSize=10;fillColor=none;rotation=90;fontStyle=2" parent="Sw8R2TDD7QGTORjDKsAt-1" vertex="1">
          <mxGeometry x="355" y="276" width="59.055" height="19.685" as="geometry" />
        </mxCell>
        <mxCell id="Sw8R2TDD7QGTORjDKsAt-48" value="ч" style="rounded=0;whiteSpace=wrap;html=1;fontFamily=Arial;fontSize=10;fillColor=none;rotation=90;fontStyle=2" parent="Sw8R2TDD7QGTORjDKsAt-1" vertex="1">
          <mxGeometry x="326" y="266" width="59.05" height="39.37" as="geometry" />
        </mxCell>
        <mxCell id="Sw8R2TDD7QGTORjDKsAt-49" value="" style="rounded=0;whiteSpace=wrap;html=1;fontFamily=Arial;fontSize=10;fillColor=none;rotation=90;fontStyle=2" parent="Sw8R2TDD7QGTORjDKsAt-1" vertex="1">
          <mxGeometry x="207" y="325" width="196.85" height="59.055" as="geometry" />
        </mxCell>
        <mxCell id="Sw8R2TDD7QGTORjDKsAt-50" value="Разраб" style="text;html=1;strokeColor=none;fillColor=none;align=center;verticalAlign=middle;whiteSpace=wrap;rounded=0;fontFamily=Arial;fontSize=10;rotation=90;fontStyle=2" parent="Sw8R2TDD7QGTORjDKsAt-1" vertex="1">
          <mxGeometry x="333" y="-251" width="66.929" height="19.68" as="geometry" />
        </mxCell>
        <mxCell id="Sw8R2TDD7QGTORjDKsAt-51" value="Пров" style="text;html=1;strokeColor=none;fillColor=none;align=center;verticalAlign=middle;whiteSpace=wrap;rounded=0;fontFamily=Arial;fontSize=10;rotation=90;fontStyle=2" parent="Sw8R2TDD7QGTORjDKsAt-1" vertex="1">
          <mxGeometry x="312" y="-252" width="66.929" height="19.68" as="geometry" />
        </mxCell>
        <mxCell id="Sw8R2TDD7QGTORjDKsAt-52" value="Н. Контр." style="text;html=1;strokeColor=none;fillColor=none;align=center;verticalAlign=middle;whiteSpace=wrap;rounded=0;fontFamily=Arial;fontSize=10;rotation=90;fontStyle=2" parent="Sw8R2TDD7QGTORjDKsAt-1" vertex="1">
          <mxGeometry x="272" y="-251" width="66.929" height="19.68" as="geometry" />
        </mxCell>
        <mxCell id="Sw8R2TDD7QGTORjDKsAt-53" value="Утв." style="text;html=1;strokeColor=none;fillColor=none;align=center;verticalAlign=middle;whiteSpace=wrap;rounded=0;fontFamily=Arial;fontSize=10;rotation=90;fontStyle=2" parent="Sw8R2TDD7QGTORjDKsAt-1" vertex="1">
          <mxGeometry x="252" y="-251" width="66.929" height="19.68" as="geometry" />
        </mxCell>
        <mxCell id="Sw8R2TDD7QGTORjDKsAt-54" value="Лит." style="text;html=1;strokeColor=none;fillColor=none;align=center;verticalAlign=middle;whiteSpace=wrap;rounded=0;fontFamily=Arial;fontSize=10;rotation=90;fontStyle=2" parent="Sw8R2TDD7QGTORjDKsAt-1" vertex="1">
          <mxGeometry x="355" y="276" width="59.055" height="19.68" as="geometry" />
        </mxCell>
        <mxCell id="Sw8R2TDD7QGTORjDKsAt-55" value="Лист" style="text;html=1;strokeColor=none;fillColor=none;align=center;verticalAlign=middle;whiteSpace=wrap;rounded=0;fontFamily=Arial;fontSize=10;rotation=90;fontStyle=2" parent="Sw8R2TDD7QGTORjDKsAt-1" vertex="1">
          <mxGeometry x="351" y="339" width="66.929" height="19.68" as="geometry" />
        </mxCell>
        <mxCell id="Sw8R2TDD7QGTORjDKsAt-56" value="Листов" style="text;html=1;strokeColor=none;fillColor=none;align=center;verticalAlign=middle;whiteSpace=wrap;rounded=0;fontFamily=Arial;fontSize=10;rotation=90;fontStyle=2" parent="Sw8R2TDD7QGTORjDKsAt-1" vertex="1">
          <mxGeometry x="349" y="407" width="69.75" height="19.68" as="geometry" />
        </mxCell>
        <mxCell id="Sw8R2TDD7QGTORjDKsAt-57" value="" style="rounded=0;whiteSpace=wrap;html=1;fillColor=none;rotation=90;fontFamily=Arial;fontStyle=2" parent="Sw8R2TDD7QGTORjDKsAt-1" vertex="1">
          <mxGeometry x="319" y="-173" width="90.551" height="19.685" as="geometry" />
        </mxCell>
        <mxCell id="Sw8R2TDD7QGTORjDKsAt-58" value="Петрова А.И." style="text;html=1;strokeColor=none;fillColor=none;align=center;verticalAlign=middle;whiteSpace=wrap;rounded=0;fontFamily=Arial;fontSize=10;rotation=90;fontStyle=2" parent="Sw8R2TDD7QGTORjDKsAt-1" vertex="1">
          <mxGeometry x="301" y="-173" width="88.74" height="19.68" as="geometry" />
        </mxCell>
        <mxCell id="Sw8R2TDD7QGTORjDKsAt-59" value="Парахин К.В." style="text;html=1;strokeColor=none;fillColor=none;align=center;verticalAlign=middle;whiteSpace=wrap;rounded=0;fontFamily=Arial;fontSize=10;rotation=90;fontStyle=2" parent="Sw8R2TDD7QGTORjDKsAt-1" vertex="1">
          <mxGeometry x="320" y="-174" width="88.74" height="19.68" as="geometry" />
        </mxCell>
        <mxCell id="Sw8R2TDD7QGTORjDKsAt-60" value="&lt;span style=&quot;font-size: 14pt; line-height: 150%;&quot;&gt;ВлГУ.09.03.04.04.25 Чертеж 1&lt;/span&gt;" style="text;html=1;strokeColor=none;fillColor=none;align=center;verticalAlign=middle;whiteSpace=wrap;rounded=0;fontFamily=Arial;fontSize=10;rotation=90;fontStyle=2" parent="Sw8R2TDD7QGTORjDKsAt-1" vertex="1">
          <mxGeometry x="189" y="188" width="471.33" height="56.74" as="geometry" />
        </mxCell>
        <mxCell id="Sw8R2TDD7QGTORjDKsAt-61" value="ПРИ-120" style="text;html=1;strokeColor=none;fillColor=none;align=center;verticalAlign=middle;whiteSpace=wrap;rounded=0;fontFamily=Arial;fontSize=10;rotation=90;fontStyle=2" parent="Sw8R2TDD7QGTORjDKsAt-1" vertex="1">
          <mxGeometry x="209" y="325" width="195.71" height="57.81" as="geometry" />
        </mxCell>
        <mxCell id="Sw8R2TDD7QGTORjDKsAt-62" value="&lt;font style=&quot;&quot;&gt;&lt;p style=&quot;&quot; align=&quot;center&quot; class=&quot;MsoNormal&quot;&gt;&lt;i style=&quot;background-color: initial;&quot;&gt;&lt;font style=&quot;font-size: 16px;&quot;&gt;Разработка мобильного&lt;br&gt;приложения «Многозадачный календарь»&lt;/font&gt;&lt;/i&gt;&lt;/p&gt;&lt;font size=&quot;3&quot;&gt;Чертеж 1 - Диаграмма прецедентов&lt;/font&gt;&lt;br&gt;&lt;/font&gt;" style="text;html=1;strokeColor=none;fillColor=none;align=center;verticalAlign=middle;whiteSpace=wrap;rounded=0;fontFamily=Arial;fontSize=10;rotation=90;fontStyle=2" parent="Sw8R2TDD7QGTORjDKsAt-1" vertex="1">
          <mxGeometry x="199" y="60" width="274.46" height="116.09" as="geometry" />
        </mxCell>
      </root>
    </mxGraphModel>
  </diagram>
</mxfile>
